<svg width="20" height="20" viewBox="0 0 20 20" fill="none" xmlns="http://www.w3.org/2000/svg">
<path d="M11.4303 12.9975H2.40034C0.580337 12.9975 -0.579665 11.0475 0.300335 9.44752L2.63034 5.2075L4.81034 1.2375C5.72034 -0.4125 8.10033 -0.4125 9.01033 1.2375L11.2003 5.2075L12.2503 7.11751L13.5303 9.44752C14.4103 11.0475 13.2503 12.9975 11.4303 12.9975Z" fill="#141820"/>
<path opacity="0.4" d="M20.0003 13.4976C20.0003 17.0876 17.0903 19.9976 13.5003 19.9976C9.91034 19.9976 7.00034 17.0876 7.00034 13.4976C7.00034 13.3276 7.01034 13.1676 7.02034 12.9976H11.4303C13.2503 12.9976 14.4103 11.0476 13.5303 9.44757L12.2503 7.11755C12.6503 7.03755 13.0703 6.99756 13.5003 6.99756C17.0903 6.99756 20.0003 9.90756 20.0003 13.4976Z" fill="#141820"/>
</svg>
