<svg width="30" height="32" viewBox="0 0 30 32" fill="none" xmlns="http://www.w3.org/2000/svg">
<path opacity="0.4" d="M5.625 22.2909V9.97587C7.56 9.48087 9 7.72587 9 5.64087C9 3.15087 6.99 1.14087 4.5 1.14087C2.01 1.14087 0 3.15087 0 5.64087C0 7.74087 1.44 9.48087 3.375 9.97587V22.2909C1.44 22.7859 0 24.5409 0 26.6259C0 29.1159 2.01 31.1259 4.5 31.1259C6.99 31.1259 9 29.1159 9 26.6259C9 24.5259 7.56 22.7859 5.625 22.2909Z" fill="#27B5FF"/>
<path d="M26.625 22.291V7.87599C26.625 5.59599 24.78 3.75099 22.5 3.75099H18.105L20.22 1.996C20.7 1.591 20.76 0.886001 20.37 0.406001C19.965 -0.073999 19.26 -0.134008 18.78 0.255992L14.28 4.00599C14.025 4.21599 13.875 4.53099 13.875 4.87599C13.875 5.22099 14.025 5.521 14.28 5.746L18.78 9.496C18.99 9.676 19.245 9.75099 19.5 9.75099C19.815 9.75099 20.145 9.61599 20.37 9.34599C20.775 8.86599 20.7 8.16099 20.22 7.75599L18.105 6.00099H22.5C23.535 6.00099 24.375 6.84099 24.375 7.87599V22.291C22.44 22.786 21 24.541 21 26.626C21 29.116 23.01 31.126 25.5 31.126C27.99 31.126 30 29.116 30 26.626C30 24.526 28.56 22.786 26.625 22.291Z" fill="#27B5FF"/>
</svg>
